<svg xmlns:svg="http://www.w3.org/2000/svg" xmlns="http://www.w3.org/2000/svg" width="600" height="162" version="1"><defs><clipPath clipPathUnits="userSpaceOnUse"><path d="m0 0 4802 0 0 1299-4802 0L0 0z"/></clipPath></defs><g transform="translate(-85.589293,-376.9046)"><g transform="matrix(1.25,0,0,-1.25,85.589293,539.24835)"><g transform="scale(0.1,0.1)"><g clip-path="url(#clipPath3020)"><path d="m925 743-404 0c-10 0-19-8-19-19l0-197c0-10 8-19 19-19l157 0 0-245c0 0-35-12-133-12-115 0-276 42-276 396 0 354 168 401 325 401 136 0 195-24 232-36 12-4 23 8 23 19l45 191c0 5-2 11-7 15-15 11-108 63-342 63C276 1299 0 1184 0 633 0 82 316 0 583 0c221 0 355 94 355 94 6 3 6 11 6 14l0 615c0 10-8 19-19 19M3005 1233c0 11-8 19-19 19l-227 0c-10 0-19-8-19-19 0 0 0-439 0-439l-354 0 0 439c0 11-8 19-19 19l-227 0c-10 0-19-8-19-19l0-1189c0-10 8-19 19-19l227 0c10 0 19 9 19 19l0 509 354 0c0 0-1-509-1-509 0-10 8-19 19-19l228 0c10 0 19 9 19 19l0 1189M1354 1077c0 82-66 148-147 148-81 0-146-66-146-148 0-82 66-148 147-148 81 0 147 66 147 148M1338 295c0 30 0 549 0 549 0 10-8 19-19 19l-227 0c-10 0-20-11-20-21 0 0 0-660 0-786 0-23 14-30 33-30 0 0 97 0 204 0 22 0 28 11 28 30 0 42 0 207 0 239M3868 861l-225 0c-10 0-19-9-19-19l0-583c0 0-57-42-139-42-81 0-103 37-103 117 0 80 0 508 0 508 0 10-8 19-19 19l-229 0c-10 0-19-9-19-19 0 0 0-310 0-547 0-236 132-294 313-294 149 0 269 82 269 82 0 0 6-43 8-48 3-5 9-10 17-10l146 1c10 0 19 9 19 19l0 798c0 10-8 19-19 19M4396 217c-78 2-131 38-131 38l0 377c0 0 52 32 117 38 81 7 159-17 159-211 0-204-35-245-145-241zm89 670c-128 0-215-57-215-57l0 403c0 11-8 19-19 19l-228 0c-10 0-19-8-19-19l0-1189c0-10 8-19 19-19 0 0 158 0 158 0 7 0 13 4 16 10 4 6 10 55 10 55 0 0 93-88 270-88 207 0 326 105 326 472 0 367-190 414-318 414M1991 862l-170 0c0 0 0 225 0 225 0 9-4 13-14 13l-232 0c-9 0-14-4-14-13l0-233c0 0-116-28-124-30-8-2-14-9-14-18l0-146c0-11 8-19 19-19l119 0c0 0 0-153 0-352 0-261 183-287 307-287 57 0 124 18 135 22 7 2 11 9 11 17l0 161c0 10-9 19-19 19-10 0-35-4-61-4-84 0-112 39-112 89 0 50 0 334 0 334l170 0c10 0 19 8 19 19l0 183c0 10-8 19-19 19" fill="#CFCFCF"/></g></g></g></g></svg>